<svg xmlns="http://www.w3.org/2000/svg" viewBox="0 0 168.05 212.18"><defs><style>.cls-1{fill:#f15d2a;}.cls-2{fill:#f15a29;}.cls-3{fill:#fff;}</style></defs><title>Asset 1</title><g id="Layer_2" data-name="Layer 2"><g id="Layer_1-2" data-name="Layer 1"><path class="cls-1" d="M75,103.67c35.07,13.51,45,2.53,76,2.53L135.32,207.11H32L18.28,104.22S39.62,90,75,103.67Z"/><path class="cls-2" d="M73.7,108.49c10.73,4.11,22,7,33.58,6.92a106.74,106.74,0,0,0,13.7-1.2c2.12-.3,4.23-.62,6.35-.95l3.13-.47,1.69-.24.77-.11c1.29-.18-.94.12.09,0a144.17,144.17,0,0,1,18-1.23l-4.82-6.33L144.6,115,140.86,139l-4.52,29.12-3.91,25.18c-.63,4.07-1.48,8.17-1.9,12.27a1,1,0,0,1,0,.17l4.82-3.67H44.76c-4.17,0-8.38-.17-12.55,0H32l5,5L35.67,196.9l-3.28-24.54-4-29.82L25,116.87c-.55-4.13-.89-8.37-1.67-12.47,0-.06,0-.12,0-.18l-2.48,4.32a21,21,0,0,1,2.32-1.28l1.28-.6.67-.29c-1.81.84-.62.26-.16.08,1.29-.51,2.61-1,3.94-1.37,1.64-.5,3.3-.91,5-1.26,1-.19,1.9-.36,2.86-.51l.68-.1c.69-.11-1.36.17-.35.05l1.73-.2a70.49,70.49,0,0,1,14.81.17c.37,0,.76.08,1.14.14-1.29-.2-.08,0,.21,0,.93.14,1.85.3,2.77.47,1.66.31,3.31.68,4.95,1.08a99.76,99.76,0,0,1,11.08,3.53c2.45.94,5.59-1,6.15-3.49a5.14,5.14,0,0,0-3.49-6.15c-18.18-6.95-39.43-9-57.51-.59a22.84,22.84,0,0,0-3.09,1.64c-1.34.89-2.71,2.57-2.48,4.32l1.37,10.21L17.92,139l4,29.82,3.43,25.67q.84,6.24,1.67,12.48l0,.17c.36,2.69,2,5,5,5h90.56c4.18,0,8.39.16,12.56,0h.17c2,0,4.5-1.53,4.83-3.67l1.56-10.09,3.74-24.08L150,145.15,153.88,120c.63-4.09,1.28-8.17,1.9-12.27l0-.17a5.2,5.2,0,0,0-.9-4.36,4.87,4.87,0,0,0-3.92-2c-10.25,0-20.28,1.54-30.39,3l-1.43.2-.85.12c-.84.12.42,0,.48-.06-1.14.14-2.27.29-3.41.41-2.11.23-4.22.39-6.34.46s-4.45,0-6.67-.1c-1.07-.06-2.15-.16-3.22-.28l-1-.11c-.92-.11.26.06.33,0a6.72,6.72,0,0,1-2.23-.34,105.9,105.9,0,0,1-19.91-5.73c-2.45-.94-5.59,1-6.15,3.49A5.14,5.14,0,0,0,73.7,108.49Z"/><path class="cls-2" d="M29,44.72H41.15a1.69,1.69,0,0,1,1.69,1.7v1.92A1.68,1.68,0,0,1,41.15,50H35.46a1.7,1.7,0,0,0-1.7,1.7v1.08a1.7,1.7,0,0,0,1.7,1.7h5.15A1.68,1.68,0,0,1,42.3,56.2v1.87a1.69,1.69,0,0,1-1.69,1.69H35.46a1.7,1.7,0,0,0-1.7,1.69v5.84A1.69,1.69,0,0,1,32.07,69H29a1.7,1.7,0,0,1-1.69-1.7V46.42A1.7,1.7,0,0,1,29,44.72Z"/><path class="cls-2" d="M46.89,46.54a1.69,1.69,0,0,1,1.51-1.68,58.28,58.28,0,0,1,6.33-.32c3.71,0,6.38.51,8.2,1.89a6.21,6.21,0,0,1,2.4,5.29,6.46,6.46,0,0,1-4.16,5.86v.13c1.61.69,2.48,2.24,3.1,4.35.44,1.47.9,3.33,1.3,4.79A1.69,1.69,0,0,1,63.94,69H60.77a1.69,1.69,0,0,1-1.6-1.13,45.33,45.33,0,0,1-1.24-4.46c-.66-2.91-1.55-3.51-3.56-3.51h-1v7.4A1.7,1.7,0,0,1,51.63,69H48.58a1.7,1.7,0,0,1-1.69-1.7Zm6.43,7A1.7,1.7,0,0,0,55,55.23h0c2.45,0,3.86-1.2,3.86-3s-1.19-2.85-3.35-2.87H55A1.68,1.68,0,0,0,53.32,51Z"/><path class="cls-2" d="M73.61,44.72a1.7,1.7,0,0,1,1.69,1.7V58.49c0,3.67,1.27,5.74,3.84,5.74S83,62.34,83,58.49V46.42a1.7,1.7,0,0,1,1.7-1.7h3.11a1.7,1.7,0,0,1,1.69,1.7V58.11c0,7.49-3.72,11.27-10.54,11.27C72.3,69.38,68.8,65.74,68.8,58V46.42a1.7,1.7,0,0,1,1.69-1.7Z"/><path class="cls-2" d="M100.44,46.42V67.29a1.7,1.7,0,0,1-1.7,1.7H95.63a1.7,1.7,0,0,1-1.69-1.7V46.42a1.7,1.7,0,0,1,1.69-1.7h3.11A1.7,1.7,0,0,1,100.44,46.42Z"/><path class="cls-2" d="M107.93,50.18h-2.79a1.7,1.7,0,0,1-1.7-1.69V46.42a1.7,1.7,0,0,1,1.7-1.7h15.59a1.7,1.7,0,0,1,1.69,1.7v2.07a1.69,1.69,0,0,1-1.69,1.69h-2.92a1.69,1.69,0,0,0-1.69,1.69V67.29a1.69,1.69,0,0,1-1.69,1.7h-3.11a1.69,1.69,0,0,1-1.69-1.7V51.87A1.7,1.7,0,0,0,107.93,50.18Z"/><path class="cls-2" d="M125.07,64.46a1.68,1.68,0,0,1,2.17-1.22,14.8,14.8,0,0,0,4.56.79c2.22,0,3.32-.78,3.32-2s-1.09-1.85-3.83-2.78c-4.09-1.45-6.81-3.71-6.81-7.32,0-4.29,3.61-7.58,9.74-7.58a17.14,17.14,0,0,1,5,.68,1.68,1.68,0,0,1,1.13,2L139.9,49a1.69,1.69,0,0,1-2.14,1.19,12.52,12.52,0,0,0-3.61-.53c-2,0-3.07.73-3.07,1.79,0,1.23,1.29,1.73,4.35,2.87,4.37,1.6,6.32,3.94,6.32,7.32,0,4.19-3.25,7.75-10.34,7.75a19.06,19.06,0,0,1-5.68-.89,1.68,1.68,0,0,1-1.13-2Z"/><path class="cls-3" d="M55.21,155.68l-6.64-20.87a1.7,1.7,0,0,1,1.61-2.21h3.53a1.7,1.7,0,0,1,1.63,1.25l2.24,8.29c.76,2.72,1.43,5.37,2,8.49h.08c.58-3,1.27-5.77,2-8.38l2.3-8.4a1.69,1.69,0,0,1,1.63-1.25h3.29a1.7,1.7,0,0,1,1.61,2.22L63.65,155.7A1.7,1.7,0,0,1,62,156.86H56.82A1.67,1.67,0,0,1,55.21,155.68Z"/><path class="cls-3" d="M80.35,134.3v20.87a1.69,1.69,0,0,1-1.69,1.69H75.54a1.69,1.69,0,0,1-1.69-1.69V134.3a1.7,1.7,0,0,1,1.69-1.7h3.12A1.7,1.7,0,0,1,80.35,134.3Z"/><path class="cls-3" d="M86.52,132.6h3.12a1.7,1.7,0,0,1,1.69,1.7v15.43A1.69,1.69,0,0,0,93,151.42h6a1.69,1.69,0,0,1,1.69,1.69v2.06A1.69,1.69,0,0,1,99,156.86H86.52a1.69,1.69,0,0,1-1.69-1.69V134.3A1.7,1.7,0,0,1,86.52,132.6Z"/><path class="cls-3" d="M105.53,132.6h3.11a1.7,1.7,0,0,1,1.7,1.7v15.43a1.69,1.69,0,0,0,1.69,1.69h6a1.7,1.7,0,0,1,1.7,1.69v2.06a1.69,1.69,0,0,1-1.7,1.69H105.53a1.69,1.69,0,0,1-1.69-1.69V134.3A1.7,1.7,0,0,1,105.53,132.6Z"/><path class="cls-3" d="M20.34,82.22l-3.5-26.17L11.31,14.63,10,5.06l-5,5H143.55c6.39,0,12.82.21,19.21,0H163l-5-5L155,31.2l-4.85,41.5L149,82.22c-.3,2.61,2.52,5.11,5,5,3-.13,4.67-2.21,5-5l3-26.14,4.85-41.5L168,5.06c.31-2.69-2.55-5-5-5H24.51C18.11.06,11.7-.07,5.3.06H5c-2.44,0-5.36,2.3-5,5l3.5,26.17L9.06,72.65l1.28,9.57a5.55,5.55,0,0,0,1.47,3.54,5.07,5.07,0,0,0,3.53,1.46c2.41-.11,5.37-2.22,5-5Z"/></g></g></svg>