<?xml version="1.0" encoding="utf-8"?>
<!-- Generator: Adobe Illustrator 24.0.2, SVG Export Plug-In . SVG Version: 6.00 Build 0)  -->
<svg version="1.1" id="Layer_1" xmlns="http://www.w3.org/2000/svg" xmlns:xlink="http://www.w3.org/1999/xlink" x="0px" y="0px"
	 viewBox="0 0 595.28 841.89" style="enable-background:new 0 0 595.28 841.89;" xml:space="preserve">
<style type="text/css">
	.st0{fill:#F15D2A;}
	.st1{fill:#F15A29;}
	.st2{fill:#FFFFFF;}
</style>
<g>
	<g>
		<path class="st0" d="M283,395.56c35.07,13.51,44.96,2.53,75.96,2.53L343.29,499H240l-13.75-102.89
			C226.25,396.11,247.59,381.91,283,395.56z"/>
		<g>
			<path class="st1" d="M281.67,400.38c10.72,4.11,22.02,7.01,33.58,6.91c4.6-0.04,9.15-0.57,13.7-1.2
				c2.12-0.29,4.23-0.62,6.35-0.95c1.05-0.16,2.09-0.32,3.14-0.47c0.56-0.08,1.12-0.16,1.68-0.24c0.26-0.04,0.52-0.07,0.78-0.11
				c1.29-0.18-0.95,0.12,0.09-0.01c5.97-0.76,11.95-1.22,17.98-1.23c-1.61-2.11-3.21-4.22-4.82-6.33
				c-0.52,3.36-1.04,6.73-1.57,10.09c-1.25,8.03-2.49,16.06-3.74,24.09c-1.51,9.71-3.01,19.41-4.52,29.12
				c-1.3,8.39-2.61,16.78-3.91,25.18c-0.63,4.07-1.48,8.17-1.9,12.26c-0.01,0.06-0.02,0.12-0.03,0.18c1.61-1.22,3.21-2.45,4.82-3.67
				c-3.42,0-6.84,0-10.27,0c-8.22,0-16.44,0-24.66,0c-9.95,0-19.89,0-29.84,0c-8.6,0-17.2,0-25.8,0c-4.17,0-8.38-0.18-12.55,0
				c-0.06,0-0.12,0-0.18,0c1.67,1.67,3.33,3.33,5,5c-0.45-3.4-0.91-6.81-1.36-10.21c-1.09-8.18-2.19-16.36-3.28-24.54
				c-1.33-9.94-2.66-19.88-3.98-29.82c-1.14-8.56-2.29-17.11-3.43-25.67c-0.55-4.14-0.89-8.38-1.67-12.48
				c-0.01-0.06-0.02-0.12-0.02-0.18c-0.83,1.44-1.65,2.88-2.48,4.32c0.73-0.48,1.53-0.89,2.31-1.27c0.42-0.21,0.85-0.41,1.28-0.6
				c0.22-0.1,0.45-0.19,0.67-0.29c-1.81,0.84-0.62,0.26-0.16,0.08c1.29-0.51,2.61-0.97,3.94-1.37c1.64-0.49,3.3-0.91,4.97-1.25
				c0.95-0.19,1.9-0.36,2.86-0.51c0.23-0.04,0.46-0.06,0.68-0.1c0.68-0.12-1.37,0.17-0.35,0.05c0.58-0.07,1.15-0.14,1.73-0.2
				c4.92-0.49,9.89-0.4,14.8,0.17c0.38,0.04,0.76,0.08,1.14,0.14c-1.29-0.2-0.08-0.01,0.21,0.04c0.93,0.14,1.85,0.3,2.77,0.47
				c1.66,0.31,3.31,0.67,4.95,1.08C274.35,397.79,278.05,398.99,281.67,400.38c2.45,0.94,5.59-1.03,6.15-3.49
				c0.65-2.86-0.87-5.15-3.49-6.15c-18.18-6.95-39.43-8.97-57.51-0.59c-1.05,0.49-2.12,1-3.09,1.65c-1.34,0.89-2.71,2.57-2.48,4.32
				c0.45,3.4,0.91,6.81,1.36,10.21c1.09,8.18,2.19,16.36,3.28,24.54c1.33,9.94,2.66,19.88,3.98,29.82
				c1.14,8.56,2.29,17.11,3.43,25.67c0.56,4.16,1.11,8.32,1.67,12.48c0.01,0.06,0.02,0.12,0.02,0.18c0.36,2.68,2,5,5,5
				c3.42,0,6.84,0,10.27,0c8.22,0,16.44,0,24.66,0c9.95,0,19.89,0,29.84,0c8.6,0,17.2,0,25.8,0c4.17,0,8.38,0.15,12.55,0
				c0.06,0,0.12,0,0.18,0c1.98,0,4.49-1.54,4.82-3.67c0.52-3.36,1.04-6.73,1.57-10.09c1.25-8.03,2.49-16.06,3.74-24.09
				c1.51-9.71,3.01-19.41,4.52-29.12c1.3-8.39,2.61-16.78,3.91-25.18c0.63-4.09,1.29-8.17,1.9-12.26c0.01-0.06,0.02-0.12,0.03-0.18
				c0.25-1.64,0.15-3.01-0.89-4.36c-0.95-1.23-2.34-1.97-3.93-1.97c-10.24,0.02-20.28,1.54-30.38,3.04
				c-0.48,0.07-0.95,0.14-1.43,0.21c-0.28,0.04-0.57,0.08-0.85,0.12c-0.84,0.12,0.42-0.06,0.48-0.06c-1.14,0.14-2.27,0.29-3.41,0.41
				c-2.11,0.22-4.22,0.39-6.34,0.46c-2.22,0.07-4.45,0.04-6.67-0.1c-1.07-0.07-2.15-0.16-3.21-0.28c-0.33-0.04-0.66-0.08-0.99-0.12
				c-0.93-0.11,0.26,0.07,0.32,0.05c-0.52,0.16-1.69-0.25-2.23-0.35c-6.82-1.16-13.45-3.25-19.91-5.73
				c-2.45-0.94-5.59,1.04-6.15,3.49C277.53,397.09,279.05,399.37,281.67,400.38z"/>
		</g>
	</g>
	<g>
		<path class="st1" d="M236.93,336.61h12.19c0.93,0,1.69,0.76,1.69,1.69v1.93c0,0.93-0.76,1.69-1.69,1.69h-5.7
			c-0.93,0-1.69,0.76-1.69,1.69v1.09c0,0.93,0.76,1.69,1.69,1.69h5.16c0.93,0,1.69,0.76,1.69,1.69v1.87c0,0.93-0.76,1.69-1.69,1.69
			h-5.16c-0.93,0-1.69,0.76-1.69,1.69v5.84c0,0.93-0.76,1.69-1.69,1.69h-3.11c-0.93,0-1.69-0.76-1.69-1.69V338.3
			C235.24,337.37,235.99,336.61,236.93,336.61z"/>
		<path class="st1" d="M254.86,338.43c0-0.87,0.65-1.59,1.51-1.68c1.71-0.19,3.88-0.32,6.33-0.32c3.72,0,6.38,0.51,8.21,1.89
			c1.56,1.19,2.39,2.92,2.39,5.29c0,3.02-2.27,5.17-4.16,5.87v0.13c1.61,0.69,2.48,2.24,3.1,4.35c0.44,1.48,0.9,3.34,1.3,4.79
			c0.3,1.08-0.51,2.14-1.63,2.14h-3.18c-0.72,0-1.36-0.45-1.6-1.13c-0.35-0.99-0.78-2.49-1.24-4.46c-0.66-2.91-1.55-3.51-3.55-3.51
			h-1.05v7.41c0,0.93-0.76,1.69-1.69,1.69h-3.05c-0.93,0-1.69-0.76-1.69-1.69V338.43z M261.29,345.42c0,0.93,0.76,1.69,1.69,1.69
			l0,0c2.45,0,3.86-1.2,3.86-3.01s-1.2-2.85-3.36-2.87c-0.2,0-0.38,0-0.55,0c-0.92,0.02-1.65,0.77-1.65,1.69V345.42z"/>
		<path class="st1" d="M281.58,336.61c0.93,0,1.69,0.76,1.69,1.69v12.08c0,3.66,1.27,5.73,3.84,5.73c2.58,0,3.84-1.88,3.84-5.73
			V338.3c0-0.93,0.76-1.69,1.69-1.69h3.11c0.93,0,1.69,0.76,1.69,1.69v11.69c0,7.5-3.73,11.28-10.55,11.28
			c-6.63,0-10.13-3.64-10.13-11.43V338.3c0-0.93,0.76-1.69,1.69-1.69H281.58z"/>
		<path class="st1" d="M308.41,338.3v20.88c0,0.93-0.76,1.69-1.69,1.69h-3.11c-0.93,0-1.69-0.76-1.69-1.69V338.3
			c0-0.93,0.76-1.69,1.69-1.69h3.11C307.65,336.61,308.41,337.37,308.41,338.3z"/>
		<path class="st1" d="M315.9,342.06h-2.8c-0.93,0-1.69-0.76-1.69-1.69v-2.07c0-0.93,0.76-1.69,1.69-1.69h15.59
			c0.93,0,1.69,0.76,1.69,1.69v2.07c0,0.93-0.76,1.69-1.69,1.69h-2.92c-0.93,0-1.69,0.76-1.69,1.69v15.42
			c0,0.93-0.76,1.69-1.69,1.69h-3.11c-0.93,0-1.69-0.76-1.69-1.69v-15.42C317.6,342.82,316.84,342.06,315.9,342.06z"/>
		<path class="st1" d="M333.04,356.35c0.22-0.97,1.23-1.55,2.17-1.23c1.33,0.45,2.93,0.79,4.56,0.79c2.22,0,3.32-0.77,3.32-2
			c0-1.16-1.09-1.84-3.83-2.78c-4.09-1.45-6.81-3.71-6.81-7.32c0-4.29,3.62-7.59,9.75-7.59c2.05,0,3.69,0.27,5.04,0.68
			c0.87,0.26,1.36,1.17,1.13,2.05l-0.5,1.9c-0.24,0.93-1.21,1.46-2.13,1.19c-0.97-0.29-2.18-0.53-3.61-0.53
			c-1.98,0-3.07,0.73-3.07,1.79c0,1.23,1.29,1.73,4.35,2.87c4.37,1.6,6.33,3.94,6.33,7.32c0,4.19-3.26,7.76-10.34,7.76
			c-2.11,0-4.18-0.4-5.68-0.89c-0.84-0.27-1.33-1.13-1.13-1.99L333.04,356.35z"/>
		<path class="st2" d="M263.18,447.57l-6.64-20.88c-0.35-1.09,0.47-2.2,1.61-2.2h3.53c0.76,0,1.43,0.51,1.63,1.25l2.24,8.29
			c0.77,2.72,1.43,5.37,2.02,8.49h0.07c0.58-2.96,1.28-5.77,1.99-8.38l2.3-8.4c0.2-0.74,0.87-1.25,1.63-1.25h3.29
			c1.15,0,1.97,1.12,1.61,2.22l-6.83,20.88c-0.23,0.7-0.88,1.17-1.61,1.17h-5.22C264.05,448.75,263.4,448.27,263.18,447.57z"/>
		<path class="st2" d="M288.32,426.18v20.88c0,0.93-0.76,1.69-1.69,1.69h-3.11c-0.93,0-1.69-0.76-1.69-1.69v-20.88
			c0-0.93,0.76-1.69,1.69-1.69h3.11C287.56,424.49,288.32,425.25,288.32,426.18z"/>
		<path class="st2" d="M294.49,424.49h3.11c0.93,0,1.69,0.76,1.69,1.69v15.43c0,0.93,0.76,1.69,1.69,1.69h5.96
			c0.93,0,1.69,0.76,1.69,1.69v2.06c0,0.93-0.76,1.69-1.69,1.69h-12.45c-0.93,0-1.69-0.76-1.69-1.69v-20.88
			C292.8,425.25,293.56,424.49,294.49,424.49z"/>
		<path class="st2" d="M313.5,424.49h3.11c0.93,0,1.69,0.76,1.69,1.69v15.43c0,0.93,0.76,1.69,1.69,1.69h5.96
			c0.93,0,1.69,0.76,1.69,1.69v2.06c0,0.93-0.76,1.69-1.69,1.69H313.5c-0.93,0-1.69-0.76-1.69-1.69v-20.88
			C311.81,425.25,312.57,424.49,313.5,424.49z"/>
	</g>
	<g>
		<g>
			<path class="st2" d="M228.31,374.11c-1.17-8.72-2.33-17.45-3.5-26.17c-1.85-13.81-3.69-27.62-5.54-41.43
				c-0.43-3.19-0.85-6.38-1.28-9.57c-1.67,1.67-3.33,3.33-5,5c5.23,0,10.47,0,15.7,0c12.57,0,25.14,0,37.71,0
				c15.21,0,30.42,0,45.64,0c13.16,0,26.31,0,39.47,0c6.39,0,12.82,0.21,19.21,0c0.09,0,0.18,0,0.27,0c-1.67-1.67-3.33-3.33-5-5
				c-1.02,8.71-2.04,17.43-3.05,26.14c-1.62,13.83-3.23,27.67-4.85,41.5c-0.37,3.17-0.74,6.35-1.11,9.52c-0.3,2.61,2.52,5.11,5,5
				c2.97-0.13,4.67-2.21,5-5c1.02-8.71,2.04-17.43,3.05-26.14c1.62-13.83,3.23-27.67,4.85-41.5c0.37-3.17,0.74-6.35,1.11-9.52
				c0.31-2.69-2.55-5-5-5c-5.23,0-10.47,0-15.7,0c-12.57,0-25.14,0-37.71,0c-15.21,0-30.42,0-45.64,0c-13.16,0-26.31,0-39.47,0
				c-6.4,0-12.81-0.13-19.21,0c-0.09,0-0.18,0-0.27,0c-2.44,0-5.36,2.31-5,5c1.17,8.72,2.33,17.45,3.5,26.17
				c1.85,13.81,3.69,27.62,5.54,41.43c0.43,3.19,0.85,6.38,1.28,9.57c0.18,1.38,0.44,2.51,1.46,3.54c0.87,0.87,2.29,1.52,3.54,1.46
				C225.72,379,228.68,376.88,228.31,374.11L228.31,374.11z"/>
		</g>
	</g>
</g>
</svg>
